<svg width="56" height="56" viewBox="0 0 56 56" fill="none" xmlns="http://www.w3.org/2000/svg">
<g clip-path="url(#clip0_389_67507)">
<path d="M8.79608 45.3823C10.6741 43.6172 10.7657 40.6639 9.00048 38.7859C7.23532 36.9079 4.28202 36.8162 2.40392 38.5814C0.525934 40.3465 0.43435 43.2998 2.19952 45.1778C2.26555 45.2481 2.33368 45.3162 2.40392 45.3822C0.928084 46.18 0.00595022 47.7203 2.19934e-07 49.398V55.0664C-0.00034978 55.5816 0.417084 55.9994 0.932284 55.9997C0.932634 55.9997 0.932984 55.9997 0.933334 55.9997H10.2667C10.7819 56.0001 11.1996 55.5826 11.2 55.0674C11.2 55.0671 11.2 55.0667 11.2 55.0664V49.398C11.194 47.7203 10.2719 46.18 8.79608 45.3823ZM5.6 39.1997C7.14642 39.1997 8.4 40.4533 8.4 41.9997C8.4 43.5461 7.14642 44.7997 5.6 44.7997C4.05358 44.7997 2.8 43.5461 2.8 41.9997C2.80163 40.454 4.05428 39.2013 5.6 39.1997ZM9.33333 54.133H1.86667V49.398C1.86807 47.89 3.09027 46.6678 4.5983 46.6664H6.6017C8.10973 46.6678 9.33193 47.89 9.33333 49.398V54.133Z" fill="#62665C"/>
<path d="M23.7293 45.3828C25.6073 43.6176 25.6989 40.6643 23.9337 38.7863C22.1685 36.9083 19.2152 36.8167 17.3373 38.5819C15.4593 40.3471 15.3677 43.3004 17.1329 45.1784C17.1989 45.2486 17.267 45.3167 17.3373 45.3828C15.8613 46.1804 14.9392 47.7208 14.9333 49.3984V55.0668C14.933 55.582 15.3504 55.9998 15.8656 56.0001C15.866 56.0001 15.8663 56.0001 15.8667 56.0001H25.2C25.7152 56.0005 26.133 55.583 26.1333 55.0678C26.1333 55.0675 26.1333 55.0671 26.1333 55.0668V49.3984C26.1273 47.7208 25.2051 46.1804 23.7293 45.3828ZM20.5332 39.2001C22.0796 39.2001 23.3332 40.4537 23.3332 42.0001C23.3332 43.5465 22.0796 44.8001 20.5332 44.8001C18.9868 44.8001 17.7332 43.5465 17.7332 42.0001C17.7349 40.4544 18.9875 39.2018 20.5332 39.2001ZM24.2666 54.1334H16.7999V49.3984C16.8013 47.8904 18.0235 46.6682 19.5315 46.6668H21.5349C23.043 46.6682 24.2652 47.8904 24.2666 49.3984V54.1334Z" fill="#62665C"/>
<path d="M38.6628 45.3828C40.5408 43.6176 40.6323 40.6643 38.8672 38.7863C37.102 36.9083 34.1487 36.8167 32.2707 38.5819C30.3928 40.3471 30.3012 43.3004 32.0663 45.1784C32.1324 45.2486 32.2005 45.3167 32.2707 45.3828C30.7948 46.1804 29.8727 47.7208 29.8668 49.3984V55.0668C29.8665 55.582 30.2839 55.9998 30.7991 56.0001C30.7995 56.0001 30.7998 56.0001 30.8002 56.0001H40.1335C40.6487 56.0005 41.0665 55.583 41.0668 55.0678C41.0668 55.0675 41.0668 55.0671 41.0668 55.0668V49.3984C41.0608 47.7208 40.1386 46.1804 38.6628 45.3828ZM35.4667 39.2001C37.0131 39.2001 38.2667 40.4537 38.2667 42.0001C38.2667 43.5465 37.0131 44.8001 35.4667 44.8001C33.9203 44.8001 32.6667 43.5465 32.6667 42.0001C32.6683 40.4544 33.921 39.2018 35.4667 39.2001ZM39.2 54.1334H31.7334V49.3984C31.7348 47.8904 32.957 46.6682 34.465 46.6668H36.4684C37.9764 46.6682 39.1986 47.8904 39.2 49.3984V54.1334Z" fill="#62665C"/>
<path d="M53.5961 45.3828C55.4741 43.6176 55.5657 40.6643 53.8005 38.7863C52.0354 36.9083 49.0821 36.8167 47.2041 38.5819C45.3261 40.3471 45.2345 43.3004 46.9997 45.1784C47.0657 45.2486 47.1339 45.3167 47.2041 45.3828C45.7281 46.1804 44.806 47.7208 44.8002 49.3984V55.0668C44.7998 55.582 45.2173 55.9998 45.7325 56.0001C45.7328 56.0001 45.7332 56.0001 45.7335 56.0001H55.0668C55.582 56.0005 55.9998 55.583 56.0002 55.0678C56.0002 55.0675 56.0002 55.0671 56.0002 55.0668V49.3984C55.9941 47.7208 55.072 46.1804 53.5961 45.3828ZM50.4001 39.2001C51.9465 39.2001 53.2001 40.4537 53.2001 42.0001C53.2001 43.5465 51.9465 44.8001 50.4001 44.8001C48.8536 44.8001 47.6001 43.5465 47.6001 42.0001C47.6017 40.4544 48.8543 39.2018 50.4001 39.2001ZM54.1334 54.1334H46.6667V49.3984C46.6681 47.8904 47.8903 46.6682 49.3984 46.6668H51.4018C52.9098 46.6682 54.132 47.8904 54.1334 49.3984V54.1334Z" fill="#62665C"/>
<path d="M33.601 4.66675C33.6007 4.66675 33.6003 4.66675 33.6 4.66675H20.5333C20.0181 4.6664 19.6003 5.08383 19.6 5.59903C19.6 5.59938 19.6 5.59973 19.6 5.60008V22.4001C19.5996 22.9153 20.0171 23.3331 20.5323 23.3334C20.5326 23.3334 20.533 23.3334 20.5333 23.3334H33.6C34.1152 23.3338 34.533 22.9163 34.5333 22.4011C34.5333 22.4008 34.5333 22.4004 34.5333 22.4001V5.60008C34.5337 5.08488 34.1162 4.6671 33.601 4.66675ZM32.6666 21.4667H21.4666V6.53341H32.6666V21.4667Z" fill="#62665C"/>
<path d="M49.3926 4.93074C49.3529 4.8892 49.3123 4.8486 49.2708 4.80894C47.7648 3.37977 45.4036 3.37977 43.8977 4.80894L43.8667 4.83904L43.8356 4.80894C42.3297 3.37977 39.9685 3.37977 38.4625 4.80894C37.0057 6.19844 36.9512 8.50587 38.3407 9.96269C38.3804 10.0042 38.421 10.0448 38.4625 10.0845L43.2186 14.6718C43.5802 15.0207 44.1531 15.0207 44.5146 14.6718L49.2707 10.0845C50.7275 8.69499 50.7821 6.38755 49.3926 4.93074ZM48.0492 8.66641C48.025 8.69196 48.0002 8.71681 47.9746 8.74096L43.8667 12.7031L39.7587 8.74096C39.0439 8.06732 39.0105 6.94184 39.6842 6.22702C39.7083 6.20147 39.7332 6.17662 39.7587 6.15247C40.5384 5.41362 41.7599 5.41362 42.5396 6.15247L43.2186 6.80779C43.5805 7.15592 44.1528 7.15592 44.5146 6.80779L45.1936 6.15247C45.9731 5.4128 47.195 5.4128 47.9745 6.15247C48.6894 6.82599 48.7228 7.95159 48.0492 8.66641Z" fill="#62665C"/>
<path d="M30.6132 13.4406L27.8132 9.70727C27.4744 9.29497 26.8656 9.23547 26.4533 9.57427C26.4047 9.61417 26.3602 9.65873 26.3203 9.70727L23.5203 13.4406C23.2714 13.7722 23.2714 14.2282 23.5203 14.5599L26.3203 18.2932C26.6288 18.7055 27.2131 18.7895 27.6254 18.4811C27.6967 18.4278 27.7599 18.3645 27.8132 18.2932L30.6132 14.5599C30.8621 14.2283 30.8621 13.7722 30.6132 13.4406ZM27.0668 16.1777L25.4335 14.0003L27.0668 11.8228L28.7001 14.0003L27.0668 16.1777Z" fill="#62665C"/>
<path d="M43.8667 16.8C39.743 16.8 36.4 20.143 36.4 24.2667C36.4 28.3904 39.743 31.7334 43.8667 31.7334C47.9904 31.7334 51.3334 28.3904 51.3334 24.2667C51.3287 20.145 47.9884 16.8047 43.8667 16.8ZM43.8667 29.8667C40.7739 29.8667 38.2667 27.3595 38.2667 24.2667C38.2667 21.1739 40.7739 18.6667 43.8667 18.6667C46.9595 18.6667 49.4667 21.1739 49.4667 24.2667C49.4633 27.3581 46.9581 29.8633 43.8667 29.8667Z" fill="#62665C"/>
<path d="M44.8001 26.1333C44.7998 26.6486 44.3821 27.0663 43.8668 27.0666C43.3515 27.0663 42.9338 26.6486 42.9334 26.1333H41.0668C41.0668 27.6797 42.3204 28.9333 43.8668 28.9333C45.4132 28.9333 46.6668 27.6797 46.6668 26.1333H44.8001Z" fill="#62665C"/>
<path d="M46.2001 21.4666C45.4269 21.4666 44.8 22.0934 44.8 22.8666C44.8 23.6397 45.4269 24.2666 46.2001 24.2666C46.9732 24.2666 47.6001 23.6397 47.6001 22.8666C47.5992 22.0938 46.9729 21.4674 46.2001 21.4666ZM46.2001 23.3332C45.9423 23.3332 45.7334 23.1243 45.7334 22.8666C45.7334 22.6088 45.9423 22.3999 46.2001 22.3999C46.4578 22.3999 46.6667 22.6088 46.6667 22.8666C46.6663 23.124 46.4575 23.3328 46.2001 23.3332Z" fill="#62665C"/>
<path d="M41.5333 21.4666C40.7602 21.4666 40.1333 22.0934 40.1333 22.8666C40.1333 23.6397 40.7602 24.2666 41.5333 24.2666C42.3061 24.2657 42.9325 23.6394 42.9333 22.8666C42.9333 22.0934 42.3065 21.4666 41.5333 21.4666ZM41.5333 23.3332C41.2758 23.3328 41.0671 23.124 41.0666 22.8666C41.0666 22.6088 41.2756 22.3999 41.5333 22.3999C41.791 22.3999 42 22.6088 42 22.8666C42 23.1243 41.791 23.3332 41.5333 23.3332Z" fill="#62665C"/>
<path d="M16.801 18.6667C16.8007 18.6667 16.8003 18.6667 16.8 18.6667H5.59996C5.08476 18.6664 4.66698 19.0838 4.66663 19.599C4.66663 19.5994 4.66663 19.5997 4.66663 19.6001V26.1334C4.66628 26.6486 5.08371 27.0664 5.59891 27.0668C5.59926 27.0668 5.59961 27.0668 5.59996 27.0668H8.99519L14.3354 31.5174C14.7315 31.8474 15.3202 31.7939 15.6502 31.3978C15.831 31.1809 15.9038 30.8937 15.8484 30.6168L15.1384 27.0668H16.8C17.3152 27.0671 17.7329 26.6497 17.7333 26.1345C17.7333 26.1341 17.7333 26.1338 17.7333 26.1334V19.6001C17.7336 19.0849 17.3162 18.6671 16.801 18.6667ZM15.8666 25.2001H14C13.4845 25.2001 13.0666 25.618 13.0667 26.1335C13.0667 26.195 13.0728 26.2564 13.0849 26.3167L13.4997 28.3902L9.93133 25.4162C9.76321 25.2765 9.55169 25.2001 9.33329 25.2001H6.53329V20.5334H15.8666V25.2001Z" fill="#62665C"/>
<path d="M45.1765 0H10.8235C4.84867 0.00665 0.00665 4.84867 0 10.8235V24.643C0.00665 30.618 4.84867 35.46 10.8235 35.4667H45.1764C51.1513 35.46 55.9932 30.618 55.9999 24.6432V10.8235C55.9934 4.84867 51.1513 0.00665 45.1765 0ZM54.1333 24.6432C54.128 29.5877 50.1209 33.5947 45.1765 33.6H10.8235C5.87907 33.5946 1.87203 29.5876 1.86667 24.6432V10.8235C1.87203 5.87907 5.87907 1.87203 10.8235 1.86667H45.1764C50.1209 1.87203 54.128 5.87907 54.1332 10.8235V24.6432H54.1333Z" fill="#62665C"/>
<path d="M12.2211 3.81308C11.8834 3.75988 11.542 3.73317 11.2001 3.7334C8.43133 3.73842 5.96593 5.48655 5.04485 8.09755L5.03948 8.10747L5.0354 8.12322C4.92002 8.4535 4.8317 8.79265 4.77127 9.13717C4.76473 9.17333 4.76053 9.20938 4.7547 9.24555C4.19307 12.8075 6.62533 16.1503 10.1873 16.712C13.7492 17.2736 17.0921 14.8413 17.6537 11.2794C18.2153 7.71745 15.7831 4.37472 12.2211 3.81308ZM10.1888 14.816C7.73262 14.3039 6.14187 11.9155 6.61588 9.45158C8.7475 9.92607 10.2646 11.8162 10.2667 14.0001C10.2655 14.2739 10.2393 14.547 10.1888 14.816ZM12.0605 14.8464C12.1036 14.5661 12.128 14.2834 12.1334 14.0001C12.1307 11.0524 10.1533 8.47217 7.30783 7.70287C7.98987 6.6664 9.05608 5.94365 10.2714 5.69387C10.3295 8.76663 12.5132 11.3872 15.5251 11.9985C14.9313 13.4765 13.6253 14.5498 12.0605 14.8464ZM12.1431 5.6962C14.2681 6.14035 15.8067 7.99045 15.856 10.1609C13.7333 9.71303 12.1964 7.86503 12.1431 5.6962Z" fill="#62665C"/>
</g>
<defs>
<clipPath id="clip0_389_67507">
<rect width="56" height="56" fill="white"/>
</clipPath>
</defs>
</svg>
