<svg width="48" height="48" viewBox="0 0 48 48" fill="none" xmlns="http://www.w3.org/2000/svg">
<path d="M24 0L31.3609 13.4589C32.0951 14.8013 33.1987 15.9049 34.5411 16.6391L48 24L34.541 31.3609C33.1987 32.0951 32.0951 33.1987 31.3609 34.5411L24 48L16.6391 34.541C15.9049 33.1987 14.8013 32.0951 13.4589 31.3609L0 24L13.4589 16.6391C14.8013 15.9049 15.9049 14.8013 16.6391 13.4589L24 0Z" fill="#F24C00"/>
<path d="M29.6305 30V28.06H23.8905L20.6505 28.28C20.6505 26.76 21.2705 26.12 23.0705 25.5L25.8905 24.64C28.2505 23.92 29.6705 22.76 29.6705 20.56C29.6705 18.2 28.0705 16.4 24.2705 16.4C20.0905 16.4 18.3905 18.64 18.3905 21.12V21.32H20.5105V21.08C20.5105 19.32 21.5105 18.38 24.1905 18.38C26.5905 18.38 27.5105 19.1 27.5105 20.52C27.5105 21.7 26.9505 22.24 25.3505 22.82L22.1505 23.92C19.3905 24.86 18.4105 26.1 18.4105 28.58V30H29.6305Z" fill="#CED1C9"/>
</svg>
