<?xml version="1.0" standalone="no"?>
<!DOCTYPE svg PUBLIC "-//W3C//DTD SVG 20010904//EN"
 "http://www.w3.org/TR/2001/REC-SVG-20010904/DTD/svg10.dtd">
<svg version="1.0" xmlns="http://www.w3.org/2000/svg"
 width="700.000000pt" height="700.000000pt" viewBox="0 0 700.000000 700.000000"
 preserveAspectRatio="xMidYMid meet">
<metadata>
Created by potrace 1.14, written by Peter Selinger 2001-2017
</metadata>
<g transform="translate(0.000000,700.000000) scale(0.100000,-0.100000)"
fill="#000000" stroke="none">
<path d="M1125 6984 c-205 -34 -427 -128 -586 -248 -197 -149 -364 -374 -442
-596 -45 -129 -60 -197 -74 -335 -9 -86 -8 -4535 1 -4625 30 -303 161 -577
380 -795 199 -198 422 -313 721 -371 22 -5 1080 -9 2350 -10 2046 -3 2321 -1
2405 13 588 96 1043 580 1096 1169 10 101 10 4559 0 4639 -3 33 -9 71 -11 85
-3 14 -7 34 -9 45 -14 75 -47 177 -87 268 -175 399 -555 690 -994 761 -129 21
-4625 21 -4750 0z"/>
</g>
</svg>
