<svg width="20" height="20" viewBox="0 0 20 20" fill="none" xmlns="http://www.w3.org/2000/svg">
<path d="M9.11674 5.0665C9.40904 5.02169 9.70435 4.9994 10.0001 4.99983C12.6501 4.99983 15.1417 6.90816 16.5917 9.99983C16.37 10.4703 16.1195 10.9267 15.8417 11.3665C15.7536 11.503 15.7072 11.6623 15.7084 11.8248C15.7103 12.0067 15.7716 12.183 15.883 12.3267C15.9944 12.4705 16.1497 12.5739 16.3254 12.6211C16.501 12.6683 16.6873 12.6568 16.8557 12.5882C17.0242 12.5197 17.1656 12.3979 17.2584 12.2415C17.6467 11.6314 17.9839 10.9904 18.2667 10.3248C18.3114 10.2208 18.3345 10.1088 18.3345 9.99566C18.3345 9.88247 18.3114 9.77048 18.2667 9.66649C16.5834 5.75816 13.4167 3.33316 10.0001 3.33316C9.60896 3.33119 9.21848 3.36466 8.83341 3.43316C8.72397 3.45177 8.61927 3.49174 8.52529 3.55081C8.4313 3.60988 8.34987 3.68688 8.28564 3.77741C8.22142 3.86795 8.17565 3.97025 8.15096 4.07848C8.12627 4.1867 8.12313 4.29873 8.14174 4.40816C8.16034 4.5176 8.20032 4.6223 8.25939 4.71628C8.31845 4.81027 8.39545 4.8917 8.48599 4.95592C8.57653 5.02015 8.67883 5.06592 8.78705 5.09061C8.89528 5.1153 9.0073 5.11843 9.11674 5.09983V5.0665ZM3.09174 1.90816C3.01404 1.83046 2.9218 1.76883 2.82028 1.72678C2.71876 1.68473 2.60996 1.66309 2.50007 1.66309C2.39019 1.66309 2.28138 1.68473 2.17987 1.72678C2.07835 1.76883 1.98611 1.83046 1.90841 1.90816C1.75149 2.06508 1.66333 2.27791 1.66333 2.49983C1.66333 2.72175 1.75149 2.93458 1.90841 3.0915L4.49174 5.6665C3.31305 6.8011 2.37495 8.16148 1.73341 9.66649C1.68752 9.77163 1.66384 9.88511 1.66384 9.99983C1.66384 10.1145 1.68752 10.228 1.73341 10.3332C3.41674 14.2415 6.58341 16.6665 10.0001 16.6665C11.4977 16.6561 12.9599 16.2102 14.2084 15.3832L16.9084 18.0915C16.9859 18.1696 17.078 18.2316 17.1796 18.2739C17.2811 18.3162 17.3901 18.338 17.5001 18.338C17.6101 18.338 17.719 18.3162 17.8206 18.2739C17.9221 18.2316 18.0143 18.1696 18.0917 18.0915C18.1698 18.014 18.2318 17.9219 18.2741 17.8203C18.3165 17.7188 18.3382 17.6098 18.3382 17.4998C18.3382 17.3898 18.3165 17.2809 18.2741 17.1793C18.2318 17.0778 18.1698 16.9856 18.0917 16.9082L3.09174 1.90816ZM8.39174 9.56649L10.4334 11.6082C10.2926 11.6485 10.1466 11.6682 10.0001 11.6665C9.55804 11.6665 9.13412 11.4909 8.82156 11.1783C8.509 10.8658 8.33341 10.4419 8.33341 9.99983C8.3317 9.85332 8.35135 9.70734 8.39174 9.56649ZM10.0001 14.9998C7.35007 14.9998 4.85841 13.0915 3.41674 9.99983C3.95515 8.81128 4.7193 7.73864 5.66674 6.8415L7.14174 8.33316C6.79528 8.96549 6.66319 9.69311 6.76529 10.4069C6.86739 11.1206 7.19817 11.782 7.70801 12.2919C8.21785 12.8017 8.87926 13.1325 9.59302 13.2346C10.3068 13.3367 11.0344 13.2046 11.6667 12.8582L12.9917 14.1665C12.0843 14.7006 11.0529 14.9879 10.0001 14.9998Z" fill="#626666"/>
</svg>
