<svg width="56" height="56" viewBox="0 0 56 56" fill="none" xmlns="http://www.w3.org/2000/svg">
<path d="M53.9903 21.9032C52.5275 19.5627 50.768 17.4213 48.7555 15.5323L54.0458 9.97687L52.6932 8.68992L47.3527 14.2981C45.1743 12.5053 42.7471 11.0381 40.1472 9.94268L42.8668 3.14685L41.1333 2.45327L38.4055 9.26952C35.3541 8.21135 32.1613 7.61717 28.9335 7.5068V0H27.0668V7.48008C23.7657 7.49735 20.489 8.0479 17.3635 9.1105L14.8742 2.4724L13.1261 3.12772L15.6218 9.78297C13.2538 10.7948 11.0425 12.1395 9.05452 13.7761L3.2514 8.63462L2.01357 10.0319L7.63865 15.0157C5.47204 17.0581 3.57994 19.3732 2.00995 21.9032C1.81944 22.207 1.81944 22.593 2.00995 22.8968C6.82887 30.8198 15.0499 36.0599 24.2668 37.0832V41.0667H22.4001C21.8848 41.0666 21.4669 41.4842 21.4668 41.9995C21.4668 41.9996 21.4668 41.9999 21.4668 42V55.0667C21.4667 55.582 21.8844 55.9999 22.3997 56C22.3998 56 22.4 56 22.4001 56H33.6001C34.1154 56.0001 34.5333 55.5825 34.5335 55.0671C34.5335 55.067 34.5335 55.0668 34.5335 55.0667V42C34.5336 41.4847 34.1159 41.0668 33.6006 41.0667C33.6005 41.0667 33.6002 41.0667 33.6001 41.0667H31.7335V37.1677C41.1069 36.2762 48.5874 31.4954 53.9903 22.8968C54.1808 22.593 54.1808 22.207 53.9903 21.9032ZM3.90847 22.3991C7.89777 16.2524 12.8847 12.3209 19.0058 10.5076C12.4347 15.4498 11.1143 24.7831 16.0564 31.3542C16.7438 32.2681 17.5343 33.1 18.4122 33.833C12.4262 31.7671 7.31467 27.7375 3.90847 22.3991ZM32.6668 42.9333V54.1333H23.3335V42.9333H32.6668ZM26.1335 41.0667V37.2519C26.5508 37.2791 26.9739 37.2904 27.3967 37.3028L29.8668 37.2937V41.0667H26.1335ZM28.1641 35.4584C27.9157 35.4562 27.6706 35.4451 27.4242 35.4375C20.2212 35.1261 14.6343 29.0344 14.9457 21.8314C15.2451 14.906 20.9048 9.42223 27.8362 9.34162C28.0846 9.34383 28.3297 9.35492 28.5761 9.3625C35.7791 9.67388 41.3659 15.7656 41.0545 22.9686C40.7551 29.894 35.0953 35.3778 28.1641 35.4584ZM36.9944 34.2924C43.5656 29.3502 44.886 20.0168 39.9439 13.4458C39.2565 12.5319 38.466 11.7 37.588 10.967C43.5741 13.0329 48.6855 17.0626 52.0918 22.4011C48.1025 28.5476 43.1156 32.4792 36.9944 34.2924Z" fill="#62665C"/>
<path d="M28.9332 12.1333V14C33.0549 14.0046 36.3952 17.3449 36.3999 21.4666H38.2666C38.2606 16.3144 34.0855 12.1393 28.9332 12.1333Z" fill="#62665C"/>
</svg>
