<svg width="28" height="28" viewBox="0 0 28 28" fill="none" xmlns="http://www.w3.org/2000/svg">
<path d="M14 2L14.4387 1.76008L14 0.957989L13.5613 1.76008L14 2ZM26 14L26.2399 14.4387L27.042 14L26.2399 13.5613L26 14ZM14 26L13.5613 26.2399L14 27.042L14.4387 26.2399L14 26ZM2 14L1.76008 13.5613L0.957989 14L1.76008 14.4387L2 14ZM10.8817 20.2984L11.3204 20.0585L10.8817 20.2984ZM7.70159 17.1183L7.46167 17.557L7.70159 17.1183ZM20.2984 17.1183L20.0585 16.6796L20.2984 17.1183ZM17.1183 20.2984L17.557 20.5383L17.1183 20.2984ZM13.5613 2.23992L16.6796 7.94151L17.557 7.46167L14.4387 1.76008L13.5613 2.23992ZM20.0585 11.3204L25.7601 14.4387L26.2399 13.5613L20.5383 10.443L20.0585 11.3204ZM25.7601 13.5613L20.0585 16.6796L20.5383 17.557L26.2399 14.4387L25.7601 13.5613ZM16.6796 20.0585L13.5613 25.7601L14.4387 26.2399L17.557 20.5383L16.6796 20.0585ZM14.4387 25.7601L11.3204 20.0585L10.443 20.5383L13.5613 26.2399L14.4387 25.7601ZM7.94151 16.6796L2.23992 13.5613L1.76008 14.4387L7.46167 17.557L7.94151 16.6796ZM2.23992 14.4387L7.94151 11.3204L7.46167 10.443L1.76008 13.5613L2.23992 14.4387ZM11.3204 7.94151L14.4387 2.23992L13.5613 1.76008L10.443 7.46167L11.3204 7.94151ZM7.94151 11.3204C9.36772 10.5404 10.5404 9.36772 11.3204 7.94151L10.443 7.46167C9.75477 8.72009 8.72009 9.75477 7.46167 10.443L7.94151 11.3204ZM11.3204 20.0585C10.5404 18.6323 9.36772 17.4596 7.94151 16.6796L7.46167 17.557C8.72009 18.2452 9.75477 19.2799 10.443 20.5383L11.3204 20.0585ZM20.0585 16.6796C18.6323 17.4596 17.4596 18.6323 16.6796 20.0585L17.557 20.5383C18.2452 19.2799 19.2799 18.2452 20.5383 17.557L20.0585 16.6796ZM16.6796 7.94151C17.4596 9.36772 18.6323 10.5404 20.0585 11.3204L20.5383 10.443C19.2799 9.75477 18.2452 8.72009 17.557 7.46167L16.6796 7.94151Z" fill="#F24C00"/>
<path d="M10.8817 20.2984L14 26V2L10.8817 7.70159C10.1476 9.04391 9.04391 10.1476 7.70159 10.8817L2 14L7.70159 17.1183C9.04391 17.8524 10.1476 18.9561 10.8817 20.2984Z" fill="#F24C00"/>
</svg>
