<svg width="48" height="48" viewBox="0 0 48 48" fill="none" xmlns="http://www.w3.org/2000/svg">
<path d="M24 0L31.3609 13.4589C32.0951 14.8013 33.1987 15.9049 34.5411 16.6391L48 24L34.541 31.3609C33.1987 32.0951 32.0951 33.1987 31.3609 34.5411L24 48L16.6391 34.541C15.9049 33.1987 14.8013 32.0951 13.4589 31.3609L0 24L13.4589 16.6391C14.8013 15.9049 15.9049 14.8013 16.6391 13.4589L24 0Z" fill="#F24C00"/>
<path d="M24.1263 30.2C27.7863 30.2 30.0063 28.8 30.0063 26.26C30.0063 24.4 28.8463 23.32 26.9063 22.98V22.82C28.6263 22.54 29.5263 21.46 29.5263 19.94C29.5263 17.66 27.5863 16.4 24.1663 16.4C20.0063 16.4 18.0863 18.36 18.0863 20.98V21.16H20.3663V21.02C20.3663 19.26 21.2463 18.44 23.9863 18.44C26.5863 18.44 27.3863 19.06 27.3863 20.36C27.3863 21.56 26.5463 22.16 24.9263 22.16H21.4863V23.96H25.2263C26.9063 23.96 27.8263 24.58 27.8263 25.94C27.8263 27.52 26.8263 28.16 24.0463 28.16C21.0863 28.16 20.3663 27.34 20.3663 25.58V25.3H18.0863V25.62C18.0863 28.34 19.9263 30.2 24.1263 30.2Z" fill="#CED1C9"/>
</svg>
