<svg width="24" height="24" viewBox="0 0 24 24" fill="none" xmlns="http://www.w3.org/2000/svg">
<path d="M12 2L14.4112 6.4087C15.1453 7.75101 16.249 8.85467 17.5913 9.5888L22 12L17.5913 14.4112C16.249 15.1453 15.1453 16.249 14.4112 17.5913L12 22L9.5888 17.5913C8.85467 16.249 7.75101 15.1453 6.4087 14.4112L2 12L6.4087 9.5888C7.75101 8.85467 8.85467 7.75101 9.5888 6.40869L12 2Z" fill="#F24C00"/>
<path d="M12 2L12.4387 1.76008L12 0.957989L11.5613 1.76008L12 2ZM22 12L22.2399 12.4387L23.042 12L22.2399 11.5613L22 12ZM12 22L11.5613 22.2399L12 23.042L12.4387 22.2399L12 22ZM2 12L1.76008 11.5613L0.957989 12L1.76008 12.4387L2 12ZM17.5913 14.4112L17.3514 13.9725L17.5913 14.4112ZM14.4112 6.4087L13.9725 6.64862L14.4112 6.4087ZM11.5613 2.23992L13.9725 6.64862L14.8499 6.16878L12.4387 1.76008L11.5613 2.23992ZM17.3514 10.0275L21.7601 12.4387L22.2399 11.5613L17.8312 9.15013L17.3514 10.0275ZM21.7601 11.5613L17.3514 13.9725L17.8312 14.8499L22.2399 12.4387L21.7601 11.5613ZM13.9725 17.3514L11.5613 21.7601L12.4387 22.2399L14.8499 17.8312L13.9725 17.3514ZM12.4387 21.7601L10.0275 17.3514L9.15013 17.8312L11.5613 22.2399L12.4387 21.7601ZM6.64862 13.9725L2.23992 11.5613L1.76008 12.4387L6.16877 14.8499L6.64862 13.9725ZM2.23992 12.4387L6.64862 10.0275L6.16878 9.15013L1.76008 11.5613L2.23992 12.4387ZM10.0275 6.64862L12.4387 2.23992L11.5613 1.76008L9.15013 6.16877L10.0275 6.64862ZM6.64862 10.0275C8.07483 9.24746 9.24746 8.07483 10.0275 6.64862L9.15013 6.16877C8.46187 7.4272 7.4272 8.46187 6.16878 9.15013L6.64862 10.0275ZM10.0275 17.3514C9.24746 15.9252 8.07483 14.7525 6.64862 13.9725L6.16877 14.8499C7.4272 15.5381 8.46187 16.5728 9.15013 17.8312L10.0275 17.3514ZM17.3514 13.9725C15.9252 14.7525 14.7525 15.9252 13.9725 17.3514L14.8499 17.8312C15.5381 16.5728 16.5728 15.5381 17.8312 14.8499L17.3514 13.9725ZM13.9725 6.64862C14.7525 8.07483 15.9252 9.24746 17.3514 10.0275L17.8312 9.15013C16.5728 8.46187 15.5381 7.4272 14.8499 6.16878L13.9725 6.64862Z" fill="#F24C00"/>
</svg>
