<svg width="896" height="884" viewBox="0 0 896 884" fill="none" xmlns="http://www.w3.org/2000/svg">
<g opacity="0.25">
<path d="M210.4 434.811C247.87 433.441 283.127 423.497 314.268 406.879C321.207 418.12 327.174 429.882 332.133 442.028C327.186 454.16 321.233 465.911 314.31 477.144C283.159 460.512 247.887 450.559 210.4 449.189L13.6898 442L210.4 434.811ZM315.193 477.617C321.951 466.647 327.788 455.183 332.67 443.354C339.786 461.087 344.757 479.623 347.471 498.537C337.325 490.738 326.534 483.734 315.193 477.617ZM348.605 499.414C345.866 479.728 340.693 460.441 333.212 442.027C340.688 423.601 345.853 404.301 348.581 384.604C364.277 372.393 378.409 358.27 390.63 342.583C410.318 339.854 429.609 334.691 448.027 327.219C466.433 334.696 485.711 339.867 505.388 342.607C517.599 358.277 531.717 372.385 547.395 384.586C550.134 404.272 555.307 423.558 562.788 441.972C555.312 460.399 550.146 479.699 547.419 499.396C531.723 511.607 517.591 525.729 505.37 541.416C485.682 544.145 466.391 549.309 447.972 556.781C429.566 549.304 410.288 544.133 390.612 541.393C378.401 525.723 364.283 511.615 348.605 499.414ZM314.665 478.469C326.281 484.73 337.316 491.925 347.67 499.954C349.451 512.919 350.171 526.055 349.795 539.228C314.487 540.375 278.946 549.373 245.774 566.918L76.8854 656.25L238.698 554.663C270.465 534.719 296.02 508.454 314.665 478.469ZM350.797 539.197C351.161 526.333 350.483 513.504 348.798 500.834C363.82 512.628 377.387 526.186 389.19 541.2C376.511 539.512 363.671 538.833 350.797 539.197ZM332.669 440.701C327.776 428.859 321.925 417.385 315.151 406.405C326.499 400.288 337.296 393.282 347.448 385.48C344.745 404.406 339.78 422.955 332.669 440.701ZM347.646 384.064C337.286 392.096 326.245 399.292 314.623 405.553C295.964 375.592 270.403 349.353 238.638 329.433L71.8763 224.858L245.827 316.981C278.962 334.529 314.468 343.544 349.746 344.722C350.134 357.917 349.422 371.077 347.646 384.064ZM389.21 342.775C377.396 357.807 363.813 371.38 348.774 383.185C350.454 370.492 351.124 357.639 350.747 344.753C363.644 345.129 376.507 344.459 389.21 342.775ZM390.091 341.648C377.093 343.427 363.922 344.14 350.716 343.751C349.538 308.475 340.523 272.972 322.973 239.839L230.845 65.8987L335.427 232.65C355.357 264.428 381.612 289.996 411.592 308.656C405.326 320.267 398.125 331.298 390.091 341.648ZM391.508 341.449C399.312 331.308 406.322 320.521 412.444 309.184C423.412 315.947 434.873 321.789 446.701 326.676C428.963 333.783 410.424 338.745 391.508 341.449ZM504.51 341.472C485.605 338.758 467.079 333.788 449.354 326.676C461.169 321.801 472.62 315.973 483.579 309.226C489.7 320.557 496.708 331.336 504.51 341.472ZM483.104 308.343C471.884 315.255 460.146 321.199 448.027 326.139C435.896 321.188 424.148 315.229 412.918 308.301C429.565 277.162 439.534 241.9 440.924 204.419L448 13.4995L455.076 204.419C456.466 241.917 466.444 277.194 483.104 308.343ZM484.431 308.699C514.435 290.052 540.715 264.49 560.669 232.71L662.263 70.9074L572.926 239.786C555.379 272.956 546.381 308.495 545.234 343.801C532.05 344.178 518.903 343.456 505.928 341.672C497.896 331.328 490.697 320.303 484.431 308.699ZM547.202 383.166C532.18 371.372 518.613 357.814 506.81 342.8C519.489 344.488 532.329 345.167 545.203 344.803C544.839 357.667 545.517 370.496 547.202 383.166ZM546.205 344.772C581.513 343.625 617.054 334.627 650.226 317.082L819.114 227.75L657.302 329.337C625.534 349.281 599.98 375.546 581.335 405.531C569.719 399.27 558.685 392.075 548.33 384.046C546.549 371.081 545.829 357.945 546.205 344.772ZM563.331 440.646C556.214 422.913 551.243 404.377 548.529 385.463C558.675 393.262 569.466 400.266 580.807 406.382C574.049 417.353 568.212 428.816 563.331 440.646ZM563.867 441.972C568.814 429.839 574.767 418.088 581.69 406.856C612.841 423.488 648.112 433.441 685.6 434.811L882.31 442L685.6 449.189C648.13 450.559 612.873 460.503 581.733 477.121C574.793 465.88 568.826 454.117 563.867 441.972ZM563.331 443.299C568.224 455.14 574.075 466.615 580.85 477.595C569.501 483.712 558.704 490.718 548.552 498.52C551.255 479.594 556.22 461.045 563.331 443.299ZM506.791 541.224C518.605 526.193 532.187 512.619 547.226 500.815C545.546 513.508 544.876 526.36 545.253 539.246C532.356 538.87 519.493 539.541 506.791 541.224ZM546.254 539.278C545.866 526.083 546.578 512.923 548.354 499.936C558.714 491.904 569.755 484.707 581.378 478.446C600.036 508.407 625.597 534.646 657.362 554.566L824.124 659.142L650.173 567.019C617.038 549.471 581.532 540.455 546.254 539.278ZM545.284 540.248C546.461 575.524 555.477 611.027 573.026 644.16L665.155 818.102L560.573 651.35C540.643 619.572 514.388 594.004 484.408 575.344C490.674 563.732 497.875 552.701 505.91 542.352C518.908 540.573 532.078 539.859 545.284 540.248ZM449.299 557.324C467.036 550.217 485.576 545.254 504.493 542.55C496.688 552.692 489.679 563.478 483.556 574.816C472.588 568.053 461.126 562.211 449.299 557.324ZM447.972 557.86C460.103 562.812 471.852 568.771 483.082 575.699C466.435 606.838 456.466 642.1 455.076 679.581L448 870.5L440.924 679.581C439.534 642.082 429.556 606.806 412.895 575.656C424.116 568.744 435.853 562.8 447.972 557.86ZM446.645 557.323C434.83 562.199 423.38 568.027 412.421 574.774C406.299 563.443 399.292 552.663 391.49 542.527C410.394 545.242 428.921 550.212 446.645 557.323ZM350.766 540.199C363.95 539.822 377.097 540.544 390.072 542.328C398.104 552.672 405.303 563.696 411.569 575.301C381.565 593.947 355.285 619.509 335.331 651.289L233.737 813.092L323.074 644.213C340.621 611.044 349.619 575.504 350.766 540.199Z" stroke="#626666"/>
</g>
</svg>
