<svg width="16" height="16" viewBox="0 0 16 16" fill="none" xmlns="http://www.w3.org/2000/svg">
<path d="M7.99985 5.50023C7.99985 4.12523 9.1561 2.98148 10.5311 3.00023C11.0126 3.00579 11.4823 3.1503 11.8837 3.4164C12.285 3.6825 12.601 4.05885 12.7936 4.50023H14.9998L12.9811 6.51898C12.8508 8.54684 11.9531 10.449 10.4706 11.8386C8.98804 13.2283 7.03189 14.0012 4.99985 14.0002C2.99985 14.0002 2.49985 13.2502 2.49985 13.2502C2.49985 13.2502 4.49985 12.5002 5.49985 11.0002C5.49985 11.0002 1.49985 9.00023 2.49985 3.50023C2.49985 3.50023 4.99985 6.00023 7.99985 6.50023V5.50023Z" stroke="#CED1C9" stroke-linecap="round" stroke-linejoin="round"/>
</svg>
