<svg width="56" height="56" viewBox="0 0 56 56" fill="none" xmlns="http://www.w3.org/2000/svg">
<path d="M18.5336 27.9865L13.0667 18.8746V14.4668C13.0586 7.25366 7.21315 1.4082 0 1.40015V3.26681C6.18275 3.2737 11.1931 8.28406 11.2 14.4668V19.1335C11.2 19.3026 11.246 19.4688 11.3331 19.6138L16.0849 27.5335H12.1333C11.618 27.5334 11.2001 27.951 11.2 28.4663C11.2 28.4665 11.2 28.4667 11.2 28.4668V32.2001H6.53333C6.0179 32.2001 5.6 32.618 5.60012 33.1336C5.60012 33.4456 5.7561 33.737 6.01568 33.91L11.2 37.3663V41.5335H4.66667C4.15135 41.5334 3.73345 41.951 3.73333 42.4664C3.73333 42.4665 3.73333 42.4667 3.73333 42.4668V52.7335H0V54.6002H4.66667C5.18198 54.6003 5.59988 54.1826 5.6 53.6673C5.6 53.6672 5.6 53.6669 5.6 53.6668V43.4002H12.1333C12.6487 43.4003 13.0666 42.9826 13.0667 42.4673C13.0667 42.4672 13.0667 42.4669 13.0667 42.4668V29.4001H17.7333C18.2488 29.4003 18.6667 28.9826 18.6668 28.4672C18.6668 28.2979 18.6208 28.1316 18.5336 27.9865ZM11.2 35.1232L9.6159 34.0668H11.2V35.1232Z" fill="#62665C"/>
<path d="M44.7999 19.1335V14.4668C44.8067 8.28406 49.8171 3.2737 55.9999 3.26681V1.40015C48.7867 1.4082 42.9412 7.25366 42.9332 14.4668V18.8746L37.4663 27.9865C37.201 28.4283 37.344 29.0016 37.7859 29.267C37.931 29.3542 38.0972 29.4003 38.2665 29.4003H42.9332V42.4669C42.9331 42.9822 43.3507 43.4001 43.8661 43.4003C43.8662 43.4003 43.8664 43.4003 43.8665 43.4003H50.3999V53.6669C50.3997 54.1822 50.8174 54.6001 51.3327 54.6003C51.3328 54.6003 51.3331 54.6003 51.3332 54.6003H55.9999V52.7336H52.2665V42.4669C52.2666 41.9516 51.849 41.5337 51.3337 41.5336C51.3335 41.5336 51.3333 41.5336 51.3332 41.5336H44.7999V35.9336H50.3999V34.0669H44.7999V28.4669C44.8 27.9516 44.3823 27.5337 43.867 27.5336C43.8669 27.5336 43.8666 27.5336 43.8665 27.5336H39.9149L44.6667 19.6139C44.7539 19.4688 44.7999 19.3028 44.7999 19.1335Z" fill="#62665C"/>
<path d="M7.46658 13.5334C7.46658 14.5644 6.63089 15.4001 5.59991 15.4001C4.56893 15.4001 3.73324 14.5644 3.73324 13.5334H1.86658C1.86658 15.5953 3.53806 17.2668 5.59991 17.2668C7.66176 17.2668 9.33324 15.5953 9.33324 13.5334H7.46658Z" fill="#62665C"/>
<path d="M52.2666 13.5334C52.2655 14.5638 51.4304 15.3989 50.4 15.4001C49.3696 15.3989 48.5345 14.5638 48.5333 13.5334H46.6666C46.6666 15.5953 48.3381 17.2668 50.4 17.2668C52.4618 17.2668 54.1333 15.5953 54.1333 13.5334H52.2666Z" fill="#62665C"/>
<path d="M38.2673 2.33325C38.2672 2.33325 38.267 2.33325 38.2668 2.33325H17.7335C17.2182 2.33314 16.8003 2.7508 16.8002 3.26612C16.8002 3.26624 16.8002 3.26647 16.8002 3.26659V20.9999C16.8001 21.5152 17.2177 21.9331 17.733 21.9333C17.7332 21.9333 17.7334 21.9333 17.7335 21.9333H21.3242L19.6097 33.9344C19.5464 34.3779 19.8068 34.8039 20.2304 34.9498C20.3281 34.9829 20.4304 34.9998 20.5335 34.9999C20.8683 34.9998 21.1775 34.8204 21.3438 34.5296L28.5416 21.9333H38.2668C38.7822 21.9334 39.2001 21.5157 39.2002 21.0004C39.2002 21.0003 39.2002 21 39.2002 20.9999V3.26659C39.2003 2.75127 38.7826 2.33337 38.2673 2.33325ZM37.3335 20.0666H28.0002C27.6652 20.0666 27.3559 20.246 27.1899 20.5369L22.1491 29.3579L23.3239 21.132C23.3971 20.6218 23.0428 20.1491 22.5326 20.0759C22.4887 20.0697 22.4445 20.0666 22.4002 20.0666H18.6668V4.19992H37.3335V20.0666Z" fill="#62665C"/>
<path d="M33.8111 6.40918L26.0642 15.8774L22.1267 11.9399L20.807 13.2596L25.4737 17.9263C25.6486 18.1015 25.886 18.2 26.1335 18.1997C26.1491 18.1997 26.1646 18.1997 26.18 18.1988C26.4434 18.1853 26.6889 18.0612 26.8558 17.857L35.2558 7.59031L33.8111 6.40918Z" fill="#62665C"/>
</svg>
