<svg width="136" height="24" viewBox="0 0 136 24" fill="none" xmlns="http://www.w3.org/2000/svg">
<path d="M12 2L14.4112 6.4087C15.1453 7.75101 16.249 8.85467 17.5913 9.5888L22 12L17.5913 14.4112C16.249 15.1453 15.1453 16.249 14.4112 17.5913L12 22L9.5888 17.5913C8.85467 16.249 7.75101 15.1453 6.4087 14.4112L2 12L6.4087 9.5888C7.75101 8.85467 8.85467 7.75101 9.5888 6.40869L12 2Z" fill="#F24C00"/>
<path d="M12 2L12.4387 1.76008L12 0.957989L11.5613 1.76008L12 2ZM22 12L22.2399 12.4387L23.042 12L22.2399 11.5613L22 12ZM12 22L11.5613 22.2399L12 23.042L12.4387 22.2399L12 22ZM2 12L1.76008 11.5613L0.957989 12L1.76008 12.4387L2 12ZM17.5913 14.4112L17.3514 13.9725L17.5913 14.4112ZM14.4112 6.4087L13.9725 6.64862L14.4112 6.4087ZM11.5613 2.23992L13.9725 6.64862L14.8499 6.16878L12.4387 1.76008L11.5613 2.23992ZM17.3514 10.0275L21.7601 12.4387L22.2399 11.5613L17.8312 9.15013L17.3514 10.0275ZM21.7601 11.5613L17.3514 13.9725L17.8312 14.8499L22.2399 12.4387L21.7601 11.5613ZM13.9725 17.3514L11.5613 21.7601L12.4387 22.2399L14.8499 17.8312L13.9725 17.3514ZM12.4387 21.7601L10.0275 17.3514L9.15013 17.8312L11.5613 22.2399L12.4387 21.7601ZM6.64862 13.9725L2.23992 11.5613L1.76008 12.4387L6.16877 14.8499L6.64862 13.9725ZM2.23992 12.4387L6.64862 10.0275L6.16878 9.15013L1.76008 11.5613L2.23992 12.4387ZM10.0275 6.64862L12.4387 2.23992L11.5613 1.76008L9.15013 6.16877L10.0275 6.64862ZM6.64862 10.0275C8.07483 9.24746 9.24746 8.07483 10.0275 6.64862L9.15013 6.16877C8.46187 7.4272 7.4272 8.46187 6.16878 9.15013L6.64862 10.0275ZM10.0275 17.3514C9.24746 15.9252 8.07483 14.7525 6.64862 13.9725L6.16877 14.8499C7.4272 15.5381 8.46187 16.5728 9.15013 17.8312L10.0275 17.3514ZM17.3514 13.9725C15.9252 14.7525 14.7525 15.9252 13.9725 17.3514L14.8499 17.8312C15.5381 16.5728 16.5728 15.5381 17.8312 14.8499L17.3514 13.9725ZM13.9725 6.64862C14.7525 8.07483 15.9252 9.24746 17.3514 10.0275L17.8312 9.15013C16.5728 8.46187 15.5381 7.4272 14.8499 6.16878L13.9725 6.64862Z" fill="#F24C00"/>
<path d="M40 2L42.4112 6.4087C43.1453 7.75101 44.249 8.85467 45.5913 9.5888L50 12L45.5913 14.4112C44.249 15.1453 43.1453 16.249 42.4112 17.5913L40 22L37.5888 17.5913C36.8547 16.249 35.751 15.1453 34.4087 14.4112L30 12L34.4087 9.5888C35.751 8.85467 36.8547 7.75101 37.5888 6.40869L40 2Z" fill="#F24C00"/>
<path d="M40 2L40.4387 1.76008L40 0.957989L39.5613 1.76008L40 2ZM50 12L50.2399 12.4387L51.042 12L50.2399 11.5613L50 12ZM40 22L39.5613 22.2399L40 23.042L40.4387 22.2399L40 22ZM30 12L29.7601 11.5613L28.958 12L29.7601 12.4387L30 12ZM45.5913 14.4112L45.3514 13.9725L45.5913 14.4112ZM42.4112 6.4087L41.9725 6.64862L42.4112 6.4087ZM39.5613 2.23992L41.9725 6.64862L42.8499 6.16878L40.4387 1.76008L39.5613 2.23992ZM45.3514 10.0275L49.7601 12.4387L50.2399 11.5613L45.8312 9.15013L45.3514 10.0275ZM49.7601 11.5613L45.3514 13.9725L45.8312 14.8499L50.2399 12.4387L49.7601 11.5613ZM41.9725 17.3514L39.5613 21.7601L40.4387 22.2399L42.8499 17.8312L41.9725 17.3514ZM40.4387 21.7601L38.0275 17.3514L37.1501 17.8312L39.5613 22.2399L40.4387 21.7601ZM34.6486 13.9725L30.2399 11.5613L29.7601 12.4387L34.1688 14.8499L34.6486 13.9725ZM30.2399 12.4387L34.6486 10.0275L34.1688 9.15013L29.7601 11.5613L30.2399 12.4387ZM38.0275 6.64862L40.4387 2.23992L39.5613 1.76008L37.1501 6.16877L38.0275 6.64862ZM34.6486 10.0275C36.0748 9.24746 37.2475 8.07483 38.0275 6.64862L37.1501 6.16877C36.4619 7.4272 35.4272 8.46187 34.1688 9.15013L34.6486 10.0275ZM38.0275 17.3514C37.2475 15.9252 36.0748 14.7525 34.6486 13.9725L34.1688 14.8499C35.4272 15.5381 36.4619 16.5728 37.1501 17.8312L38.0275 17.3514ZM45.3514 13.9725C43.9252 14.7525 42.7525 15.9252 41.9725 17.3514L42.8499 17.8312C43.5381 16.5728 44.5728 15.5381 45.8312 14.8499L45.3514 13.9725ZM41.9725 6.64862C42.7525 8.07483 43.9252 9.24746 45.3514 10.0275L45.8312 9.15013C44.5728 8.46187 43.5381 7.4272 42.8499 6.16878L41.9725 6.64862Z" fill="#F24C00"/>
<path d="M68 2L68.4387 1.76008L68 0.957989L67.5613 1.76008L68 2ZM78 12L78.2399 12.4387L79.042 12L78.2399 11.5613L78 12ZM68 22L67.5613 22.2399L68 23.042L68.4387 22.2399L68 22ZM58 12L57.7601 11.5613L56.958 12L57.7601 12.4387L58 12ZM73.5913 14.4112L73.3514 13.9725L73.5913 14.4112ZM70.4112 6.4087L69.9725 6.64862L70.4112 6.4087ZM67.5613 2.23992L69.9725 6.64862L70.8499 6.16878L68.4387 1.76008L67.5613 2.23992ZM73.3514 10.0275L77.7601 12.4387L78.2399 11.5613L73.8312 9.15013L73.3514 10.0275ZM77.7601 11.5613L73.3514 13.9725L73.8312 14.8499L78.2399 12.4387L77.7601 11.5613ZM69.9725 17.3514L67.5613 21.7601L68.4387 22.2399L70.8499 17.8312L69.9725 17.3514ZM68.4387 21.7601L66.0275 17.3514L65.1501 17.8312L67.5613 22.2399L68.4387 21.7601ZM62.6486 13.9725L58.2399 11.5613L57.7601 12.4387L62.1688 14.8499L62.6486 13.9725ZM58.2399 12.4387L62.6486 10.0275L62.1688 9.15013L57.7601 11.5613L58.2399 12.4387ZM66.0275 6.64862L68.4387 2.23992L67.5613 1.76008L65.1501 6.16877L66.0275 6.64862ZM62.6486 10.0275C64.0748 9.24746 65.2475 8.07483 66.0275 6.64862L65.1501 6.16877C64.4619 7.4272 63.4272 8.46187 62.1688 9.15013L62.6486 10.0275ZM66.0275 17.3514C65.2475 15.9252 64.0748 14.7525 62.6486 13.9725L62.1688 14.8499C63.4272 15.5381 64.4619 16.5728 65.1501 17.8312L66.0275 17.3514ZM73.3514 13.9725C71.9252 14.7525 70.7525 15.9252 69.9725 17.3514L70.8499 17.8312C71.5381 16.5728 72.5728 15.5381 73.8312 14.8499L73.3514 13.9725ZM69.9725 6.64862C70.7525 8.07483 71.9252 9.24746 73.3514 10.0275L73.8312 9.15013C72.5728 8.46187 71.5381 7.4272 70.8499 6.16878L69.9725 6.64862Z" fill="#F24C00"/>
<path d="M65.5888 17.5913L68 22V2L65.5888 6.40869C64.8547 7.75101 63.751 8.85467 62.4087 9.5888L58 12L62.4087 14.4112C63.751 15.1453 64.8547 16.249 65.5888 17.5913Z" fill="#F24C00"/>
<path d="M96 2L96.4387 1.76008L96 0.957989L95.5613 1.76008L96 2ZM106 12L106.24 12.4387L107.042 12L106.24 11.5613L106 12ZM96 22L95.5613 22.2399L96 23.042L96.4387 22.2399L96 22ZM86 12L85.7601 11.5613L84.958 12L85.7601 12.4387L86 12ZM101.591 14.4112L101.351 13.9725L101.591 14.4112ZM98.4112 6.4087L97.9725 6.64862L98.4112 6.4087ZM95.5613 2.23992L97.9725 6.64862L98.8499 6.16878L96.4387 1.76008L95.5613 2.23992ZM101.351 10.0275L105.76 12.4387L106.24 11.5613L101.831 9.15013L101.351 10.0275ZM105.76 11.5613L101.351 13.9725L101.831 14.8499L106.24 12.4387L105.76 11.5613ZM97.9725 17.3514L95.5613 21.7601L96.4387 22.2399L98.8499 17.8312L97.9725 17.3514ZM96.4387 21.7601L94.0275 17.3514L93.1501 17.8312L95.5613 22.2399L96.4387 21.7601ZM90.6486 13.9725L86.2399 11.5613L85.7601 12.4387L90.1688 14.8499L90.6486 13.9725ZM86.2399 12.4387L90.6486 10.0275L90.1688 9.15013L85.7601 11.5613L86.2399 12.4387ZM94.0275 6.64862L96.4387 2.23992L95.5613 1.76008L93.1501 6.16877L94.0275 6.64862ZM90.6486 10.0275C92.0748 9.24746 93.2475 8.07483 94.0275 6.64862L93.1501 6.16877C92.4619 7.4272 91.4272 8.46187 90.1688 9.15013L90.6486 10.0275ZM94.0275 17.3514C93.2475 15.9252 92.0748 14.7525 90.6486 13.9725L90.1688 14.8499C91.4272 15.5381 92.4619 16.5728 93.1501 17.8312L94.0275 17.3514ZM101.351 13.9725C99.9252 14.7525 98.7525 15.9252 97.9725 17.3514L98.8499 17.8312C99.5381 16.5728 100.573 15.5381 101.831 14.8499L101.351 13.9725ZM97.9725 6.64862C98.7525 8.07483 99.9252 9.24746 101.351 10.0275L101.831 9.15013C100.573 8.46187 99.5381 7.4272 98.8499 6.16878L97.9725 6.64862Z" fill="#969999"/>
<path d="M124 2L124.439 1.76008L124 0.957989L123.561 1.76008L124 2ZM134 12L134.24 12.4387L135.042 12L134.24 11.5613L134 12ZM124 22L123.561 22.2399L124 23.042L124.439 22.2399L124 22ZM114 12L113.76 11.5613L112.958 12L113.76 12.4387L114 12ZM129.591 14.4112L129.351 13.9725L129.591 14.4112ZM126.411 6.4087L125.973 6.64862L126.411 6.4087ZM123.561 2.23992L125.973 6.64862L126.85 6.16878L124.439 1.76008L123.561 2.23992ZM129.351 10.0275L133.76 12.4387L134.24 11.5613L129.831 9.15013L129.351 10.0275ZM133.76 11.5613L129.351 13.9725L129.831 14.8499L134.24 12.4387L133.76 11.5613ZM125.973 17.3514L123.561 21.7601L124.439 22.2399L126.85 17.8312L125.973 17.3514ZM124.439 21.7601L122.027 17.3514L121.15 17.8312L123.561 22.2399L124.439 21.7601ZM118.649 13.9725L114.24 11.5613L113.76 12.4387L118.169 14.8499L118.649 13.9725ZM114.24 12.4387L118.649 10.0275L118.169 9.15013L113.76 11.5613L114.24 12.4387ZM122.027 6.64862L124.439 2.23992L123.561 1.76008L121.15 6.16877L122.027 6.64862ZM118.649 10.0275C120.075 9.24746 121.247 8.07483 122.027 6.64862L121.15 6.16877C120.462 7.4272 119.427 8.46187 118.169 9.15013L118.649 10.0275ZM122.027 17.3514C121.247 15.9252 120.075 14.7525 118.649 13.9725L118.169 14.8499C119.427 15.5381 120.462 16.5728 121.15 17.8312L122.027 17.3514ZM129.351 13.9725C127.925 14.7525 126.753 15.9252 125.973 17.3514L126.85 17.8312C127.538 16.5728 128.573 15.5381 129.831 14.8499L129.351 13.9725ZM125.973 6.64862C126.753 8.07483 127.925 9.24746 129.351 10.0275L129.831 9.15013C128.573 8.46187 127.538 7.4272 126.85 6.16878L125.973 6.64862Z" fill="#969999"/>
</svg>
