<svg width="56" height="56" viewBox="0 0 56 56" fill="none" xmlns="http://www.w3.org/2000/svg">
<g clip-path="url(#clip0_28_7393)">
<path d="M13.0237 29.8899C13.6527 29.0829 13.9961 28.09 13.9999 27.0668C13.9999 24.4895 11.9106 22.4001 9.33329 22.4001C6.75602 22.4001 4.66665 24.4895 4.66665 27.0668C4.6705 28.09 5.01385 29.0829 5.64291 29.8899C2.46364 30.1299 0.00501665 32.777 0 35.9654V42.9335C0 43.4489 0.417898 43.8668 0.933329 43.8668H3.73332V55.0668C3.73332 55.5822 4.15122 56.0001 4.66665 56.0001H13.9999C14.5154 56.0001 14.9333 55.5822 14.9333 55.0668V43.8668H17.7333C18.2487 43.8668 18.6666 43.4489 18.6666 42.9335V35.9654C18.6616 32.777 16.2029 30.1299 13.0237 29.8899ZM9.33329 24.2668C10.8797 24.2668 12.1333 25.5204 12.1333 27.0668C12.1333 28.6132 10.8797 29.8668 9.33329 29.8668C7.78688 29.8668 6.53331 28.6132 6.53331 27.0668C6.53494 25.5211 7.78758 24.2686 9.33329 24.2668ZM16.7999 42.0001H14.9333V34.5334H13.0666V54.1333H10.2666V43.8667H8.39996V54.1333H5.59998V34.5334H3.73332V42.0001H1.86666V35.9653C1.86934 33.6291 3.76248 31.7361 6.09849 31.7334H12.568C14.9041 31.7361 16.7971 33.6293 16.7998 35.9653V42.0001H16.7999Z" fill="#62665C"/>
<path d="M55.9437 4.34761C55.8493 4.08827 55.645 3.88398 55.3857 3.7896L45.1191 0.0562854C44.6343 -0.119647 44.0987 0.130602 43.9228 0.615349C43.8857 0.717316 43.8667 0.824998 43.8667 0.933498V17.7334H38.2667C37.7513 17.7334 37.3334 18.1513 37.3334 18.6667V27.0667C37.3334 27.5821 37.7513 28 38.2667 28H51.3333C51.8487 28 52.2666 27.5821 52.2666 27.0667V18.6667C52.2666 18.1513 51.8487 17.7334 51.3333 17.7334H45.7333V9.05404L55.3856 5.54414C55.8701 5.36774 56.12 4.83213 55.9437 4.34761ZM50.4 19.6001V26.1334H39.2V19.6001H43.8667V23.3334H45.7333V19.6001H50.4ZM45.7333 7.06757V2.26606L52.3355 4.66681L45.7333 7.06757Z" fill="#62665C"/>
<path d="M35.4663 30.8004H25.1997C23.1379 30.8004 21.4664 29.1289 21.4664 27.0671C21.4664 25.0052 23.1379 23.3337 25.1997 23.3337H31.9551L28.3356 26.3501L29.5305 27.7838L35.1304 23.1172C35.5264 22.7874 35.58 22.1992 35.2503 21.8033C35.2141 21.7598 35.174 21.7198 35.1304 21.6835L29.5305 17.0168L28.3356 18.4506L31.9551 21.467H25.1997C22.1069 21.467 19.5997 23.9741 19.5997 27.0669C19.5997 30.1598 22.1069 32.6669 25.1997 32.6669H35.4663C40.1056 32.6669 43.8663 36.4276 43.8663 41.0669C43.8663 45.706 40.1056 49.4668 35.4663 49.4668H19.5997V51.3335H35.4663C41.1364 51.3335 45.733 46.737 45.733 41.0669C45.733 35.3969 41.1364 30.8004 35.4663 30.8004Z" fill="#62665C"/>
</g>
<defs>
<clipPath id="clip0_28_7393">
<rect width="56" height="56" fill="white"/>
</clipPath>
</defs>
</svg>
